<?xml version="1.0" encoding="UTF-8" standalone="no"?>
<!-- Created with Inkscape (http://www.inkscape.org/) -->

<svg
   xmlns:dc="http://purl.org/dc/elements/1.1/"
   xmlns:cc="http://creativecommons.org/ns#"
   xmlns:rdf="http://www.w3.org/1999/02/22-rdf-syntax-ns#"
   xmlns:svg="http://www.w3.org/2000/svg"
   xmlns="http://www.w3.org/2000/svg"
   xmlns:sodipodi="http://sodipodi.sourceforge.net/DTD/sodipodi-0.dtd"
   xmlns:inkscape="http://www.inkscape.org/namespaces/inkscape"
   width="1080"
   height="1080"
   id="svg2"
   version="1.1"
   inkscape:version="0.47 r22583"
   sodipodi:docname="KitFlyingSil.svg">
  <defs
     id="defs4">
    <inkscape:perspective
       sodipodi:type="inkscape:persp3d"
       inkscape:vp_x="0 : 526.18109 : 1"
       inkscape:vp_y="0 : 1000 : 0"
       inkscape:vp_z="744.09448 : 526.18109 : 1"
       inkscape:persp3d-origin="372.04724 : 350.78739 : 1"
       id="perspective10" />
    <inkscape:perspective
       id="perspective2820"
       inkscape:persp3d-origin="0.5 : 0.33333333 : 1"
       inkscape:vp_z="1 : 0.5 : 1"
       inkscape:vp_y="0 : 1000 : 0"
       inkscape:vp_x="0 : 0.5 : 1"
       sodipodi:type="inkscape:persp3d" />
    <inkscape:perspective
       id="perspective3032"
       inkscape:persp3d-origin="0.5 : 0.33333333 : 1"
       inkscape:vp_z="1 : 0.5 : 1"
       inkscape:vp_y="0 : 1000 : 0"
       inkscape:vp_x="0 : 0.5 : 1"
       sodipodi:type="inkscape:persp3d" />
    <inkscape:perspective
       id="perspective3290"
       inkscape:persp3d-origin="0.5 : 0.33333333 : 1"
       inkscape:vp_z="1 : 0.5 : 1"
       inkscape:vp_y="0 : 1000 : 0"
       inkscape:vp_x="0 : 0.5 : 1"
       sodipodi:type="inkscape:persp3d" />
    <inkscape:perspective
       id="perspective3325"
       inkscape:persp3d-origin="0.5 : 0.33333333 : 1"
       inkscape:vp_z="1 : 0.5 : 1"
       inkscape:vp_y="0 : 1000 : 0"
       inkscape:vp_x="0 : 0.5 : 1"
       sodipodi:type="inkscape:persp3d" />
    <inkscape:perspective
       id="perspective3360"
       inkscape:persp3d-origin="0.5 : 0.33333333 : 1"
       inkscape:vp_z="1 : 0.5 : 1"
       inkscape:vp_y="0 : 1000 : 0"
       inkscape:vp_x="0 : 0.5 : 1"
       sodipodi:type="inkscape:persp3d" />
    <inkscape:perspective
       id="perspective3412"
       inkscape:persp3d-origin="0.5 : 0.33333333 : 1"
       inkscape:vp_z="1 : 0.5 : 1"
       inkscape:vp_y="0 : 1000 : 0"
       inkscape:vp_x="0 : 0.5 : 1"
       sodipodi:type="inkscape:persp3d" />
    <inkscape:perspective
       id="perspective3478"
       inkscape:persp3d-origin="0.5 : 0.33333333 : 1"
       inkscape:vp_z="1 : 0.5 : 1"
       inkscape:vp_y="0 : 1000 : 0"
       inkscape:vp_x="0 : 0.5 : 1"
       sodipodi:type="inkscape:persp3d" />
    <inkscape:perspective
       id="perspective3498"
       inkscape:persp3d-origin="0.5 : 0.33333333 : 1"
       inkscape:vp_z="1 : 0.5 : 1"
       inkscape:vp_y="0 : 1000 : 0"
       inkscape:vp_x="0 : 0.5 : 1"
       sodipodi:type="inkscape:persp3d" />
    <inkscape:perspective
       id="perspective3541"
       inkscape:persp3d-origin="0.5 : 0.33333333 : 1"
       inkscape:vp_z="1 : 0.5 : 1"
       inkscape:vp_y="0 : 1000 : 0"
       inkscape:vp_x="0 : 0.5 : 1"
       sodipodi:type="inkscape:persp3d" />
    <inkscape:perspective
       id="perspective3555"
       inkscape:persp3d-origin="0.5 : 0.33333333 : 1"
       inkscape:vp_z="1 : 0.5 : 1"
       inkscape:vp_y="0 : 1000 : 0"
       inkscape:vp_x="0 : 0.5 : 1"
       sodipodi:type="inkscape:persp3d" />
    <inkscape:perspective
       id="perspective3752"
       inkscape:persp3d-origin="0.5 : 0.33333333 : 1"
       inkscape:vp_z="1 : 0.5 : 1"
       inkscape:vp_y="0 : 1000 : 0"
       inkscape:vp_x="0 : 0.5 : 1"
       sodipodi:type="inkscape:persp3d" />
    <inkscape:perspective
       id="perspective3784"
       inkscape:persp3d-origin="0.5 : 0.33333333 : 1"
       inkscape:vp_z="1 : 0.5 : 1"
       inkscape:vp_y="0 : 1000 : 0"
       inkscape:vp_x="0 : 0.5 : 1"
       sodipodi:type="inkscape:persp3d" />
  </defs>
  <sodipodi:namedview
     id="base"
     pagecolor="#ffffff"
     bordercolor="#666666"
     borderopacity="1.0"
     inkscape:pageopacity="0.0"
     inkscape:pageshadow="2"
     inkscape:zoom="0.22685185"
     inkscape:cx="-169.46467"
     inkscape:cy="716.50096"
     inkscape:document-units="in"
     inkscape:current-layer="layer1"
     showgrid="false"
     units="in"
     inkscape:showpageshadow="false"
     borderlayer="false"
     inkscape:window-width="1280"
     inkscape:window-height="747"
     inkscape:window-x="-4"
     inkscape:window-y="-4"
     inkscape:window-maximized="1" />
  <metadata
     id="metadata7">
    <rdf:RDF>
      <cc:Work
         rdf:about="">
        <dc:format>image/svg+xml</dc:format>
        <dc:type
           rdf:resource="http://purl.org/dc/dcmitype/StillImage" />
        <dc:title></dc:title>
      </cc:Work>
    </rdf:RDF>
  </metadata>
  <g
     inkscape:label="Layer 1"
     inkscape:groupmode="layer"
     id="layer1"
     transform="translate(0,27.64025)">
    <path
       style="fill:#000000"
       d=""
       id="path3486" />
    <path
       style="fill:#000000"
       d=""
       id="path3484" />
    <path
       style="fill:#000080"
       d="m 924.42048,1036.2212 c -1.3347,-3.4782 0.31141,-7.9107 4.78172,-12.8756 2.78721,-3.0957 3.13179,-4.4927 1.50857,-6.1159 -2.87097,-2.871 -2.64984,-9.371 0.40504,-11.9063 3.77359,-3.1319 0.86176,-10.79943 -8.74474,-23.02698 -8.0089,-10.194 -8.29237,-10.9716 -9.21316,-25.2734 -0.67251,-10.4455 -1.85236,-15.7915 -4.03906,-18.3013 -1.69897,-1.95 -6.18584,-10.1121 -9.9708,-18.13806 l -6.88176,-14.59263 -8.4204,-0.0323 c -8.16701,-0.0313 -8.42041,-0.19234 -8.42041,-5.35045 0,-2.92498 -0.79772,-5.31815 -1.77271,-5.31815 -0.975,0 -1.77272,2.74149 -1.77272,6.09219 0,5.56591 -0.49352,6.14018 -5.71281,6.64769 -5.38273,0.52339 -5.92046,1.23817 -9.30676,12.37099 -1.97667,6.49848 -4.8956,13.27918 -6.48653,15.06808 -5.12514,5.7631 -5.4287,10.4268 -1.23982,19.0488 3.62818,7.4679 3.77865,8.8993 1.74237,16.575 -1.22584,4.6207 -4.02146,12.3899 -6.2125,17.2649 -3.895,8.66609 -3.90961,8.93569 -0.65579,12.10292 1.83037,1.7816 2.89207,4.3751 2.35935,5.7634 -0.53272,1.3882 1.00105,5.4265 3.40836,8.9739 2.79386,4.1169 4.37697,8.9375 4.37697,13.3278 l 0,6.8781 -38.53338,-0.4778 c -35.71274,-0.4427 -38.57901,-0.715 -39.15676,-3.7202 -1.32058,-6.8691 1.45563,-11.5056 9.10716,-15.2096 4.21149,-2.0388 9.01169,-3.7069 10.66707,-3.7069 1.6554,0 4.39499,-0.7394 6.08801,-1.6433 1.69301,-0.9038 4.55698,-2.1071 6.36437,-2.674 2.07237,-0.65 2.89716,-2.0445 2.23298,-3.7753 -0.63222,-1.6475 0.72086,-4.38883 3.38506,-6.85783 3.97632,-3.6852 4.59651,-6.1193 5.959,-23.38809 0.98779,-12.5196 0.90322,-19.6692 -0.2413,-20.4003 -0.9856,-0.6296 -1.29724,-4.1448 -0.70724,-7.9772 0.58015,-3.7684 1.27644,-15.3985 1.54729,-25.84463 0.47704,-18.39722 0.3608,-19.06346 -3.70552,-21.24104 -2.3089,-1.23646 -4.79073,-3.85038 -5.51517,-5.80873 -1.41112,-3.81461 -0.96241,-5.72498 5.8406,-24.86595 2.4257,-6.82496 4.83179,-14.80219 5.34687,-17.72717 0.51506,-2.92498 1.5123,-6.80728 2.21605,-8.62733 1.20324,-3.11177 0.49675,-3.23526 -11.84169,-2.06997 -7.21669,0.68158 -18.15652,2.37014 -24.31073,3.75238 -6.15422,1.38223 -18.16331,2.51313 -26.68686,2.51313 -14.32279,0 -16.1619,-0.42134 -24.26486,-5.55899 -10.5449,-6.68596 -13.10901,-10.07048 -17.27656,-22.80447 -7.85237,-23.99294 -7.23917,-54.03744 1.80902,-88.63583 2.42232,-9.26244 4.70277,-18.43625 5.06769,-20.38624 3.04428,-16.26817 6.67888,-27.14419 13.76184,-41.18024 4.54122,-8.99921 8.25678,-17.21418 8.25678,-18.25549 0,-1.04131 2.91584,-6.44189 6.47964,-12.00127 6.98608,-10.89801 14.74762,-26.58263 14.77564,-29.85884 0.009,-1.11305 -1.96484,-2.52121 -4.38747,-3.12925 -2.88673,-0.72453 -4.80381,-2.77634 -5.56259,-5.95351 -0.63678,-2.66638 -1.93476,-5.83497 -2.88439,-7.0413 -0.94964,-1.20632 -1.27334,-3.37451 -0.71935,-4.81819 0.55399,-1.44369 0.24439,-3.09637 -0.68802,-3.67263 -0.93242,-0.57627 -1.69531,-2.89731 -1.69531,-5.15786 0,-4.75677 -1.28093,-5.97347 -13.29537,-12.62881 -4.87497,-2.70045 -9.6613,-5.85837 -10.6363,-7.01757 -0.97499,-1.1592 -9.74994,-7.93494 -19.49988,-15.05721 -21.66107,-15.82326 -54.11307,-42.16987 -64.12105,-52.05757 -4.06677,-4.0179 -13.00672,-12.49046 -19.86653,-18.82792 -18.17579,-16.79174 -52.59088,-51.08779 -65.2583,-65.03256 -6.03571,-6.64434 -13.6604,-14.87263 -16.94377,-18.28511 -19.55716,-20.32625 -47.07805,-51.4344 -72.92567,-82.43132 -16.26053,-19.49988 -33.72132,-40.08286 -38.80179,-45.73995 -5.08048,-5.6571 -10.04074,-11.68947 -11.0228,-13.4053 -0.98207,-1.71582 -4.57762,-6.13674 -7.9901,-9.82426 -3.41248,-3.68751 -11.60902,-14.00845 -18.21452,-22.93539 -6.60551,-8.92695 -13.18672,-17.63594 -14.62491,-19.35333 -1.4382,-1.71739 -2.6149,-3.75188 -2.6149,-4.5211 0,-0.76923 -3.98861,-5.87372 -8.8636,-11.34331 -4.875,-5.46959 -8.8636,-10.68108 -8.8636,-11.58107 0,-0.89999 -2.6485,-4.36191 -5.8855,-7.69313 -3.2371,-3.33123 -13.3025,-17.2249 -22.3677,-30.87481 -9.0652,-13.64992 -17.5613,-25.96258 -18.8802,-27.36147 -2.0748,-2.200587 -3.6595,-1.964147 -11.7571,1.7541 -5.1475,2.36364 -9.7579,4.72858 -10.2454,5.25541 -0.4875,0.52684 -4.5957,2.92838 -9.1293,5.33677 -18.3871,9.7678 -32.6104,21.10273 -41.9394,33.42257 -5.1754,6.83462 -9.3857,13.86503 -9.3563,15.62312 0.029,1.75811 0.078,7.87052 0.107,13.58315 l 0.053,10.3866 6.2005,-0.72387 c 7.3546,-0.8586 7.7124,0.79542 3.3894,15.6661 -2.3232,7.99147 -3.2465,9.30915 -5.3182,7.58983 -1.3788,-1.14431 -2.5069,-3.09109 -2.5069,-4.32617 0,-1.23509 -1.4996,-4.09762 -3.3325,-6.36117 l -3.3326,-4.11552 -9.859,7.4436 c -9.6981,7.32217 -14.7782,9.14141 -35.6232,12.75704 -5.7687,1.00061 -10.8906,2.2213 -11.382,2.71266 -0.4913,0.49138 0.6962,2.68514 2.6391,4.87503 3.6823,4.15049 10.0178,19.10424 8.6665,20.45555 -0.4272,0.42724 -3.0113,0.0441 -5.7423,-0.85129 -2.731,-0.89546 -8.3557,-1.52364 -12.4995,-1.39595 -4.1437,0.12764 -7.534,-0.001 -7.534,-0.28668 0,-0.28536 1.9943,-4.09097 4.4318,-8.45692 6.4417,-11.53814 6.0544,-12.36644 -5.1655,-11.04777 -9.0739,1.06647 -25.5896,6.90716 -27.5942,9.75859 -0.5071,0.72127 -4.1128,3.23819 -8.0128,5.59317 -3.9,2.35497 -8.6863,5.80648 -10.6363,7.67002 -3.5039,3.34852 -3.4156,3.37546 7.534,2.29951 8.2115,-0.80689 11.0795,-0.52056 11.0795,1.10616 0,1.20718 -2.906,8.17502 -6.4577,15.48409 -6.1401,12.63555 -6.5479,13.07122 -8.2909,8.85742 -5.6909,-13.75834 -8.4779,-19.40264 -10.0647,-20.38335 -0.9776,-0.60418 -1.7804,-0.45313 -1.784,0.33566 0,0.78879 -1.766595,4.22619 -3.917595,7.63867 -6.507,10.32322 -8.3001,19.87417 -5.3625,28.5643 2.8389,8.39845 7.7717,13.2577 15.174795,14.94859 6.0618,1.38454 6.5507,0.96349 7.6194,-6.56187 1.5056,-10.60179 1.8438,-10.92485 10.2334,-9.77492 15.4036,2.1113 22.4809,8.5179 11.7749,10.6591 -5.2843,1.05685 -17.7258,8.21122 -17.7667,10.2166 -0.012,0.59115 5.3627,2.3954 11.9439,4.00946 6.5812,1.61404 14.0968,4.49818 16.7013,6.40917 l 4.7355,3.47453 6.7872,-6.11331 c 7.4931,-6.74921 9.9849,-7.28209 16.5371,-3.53651 2.4375,1.39339 6.2737,2.56171 8.525,2.59625 6.149,0.0943 3.0858,3.04563 -4.5168,4.35182 -13.379,2.29861 -23.5081,5.28466 -23.5081,6.93019 0,0.92693 1.3346,2.66122 2.9658,3.85395 6.2375,4.56099 9.8502,27.1301 5.6222,35.12264 -3.7394,7.0688 -14.2951,18.94017 -16.8411,18.94017 -1.3794,0 -4.4963,1.30282 -6.9265,2.89518 -4.1434,2.71481 -4.2499,3.15267 -1.7104,7.02848 3.7947,5.79152 3.4154,7.25892 -2.1667,8.38123 -2.6812,0.53908 -7.1962,1.54469 -10.0331,2.23472 -5.1271,1.247 -5.1405,1.22926 -2.2159,-2.94609 4.8264,-6.89066 3.7893,-8.29089 -5.4808,-7.40015 -6.9394,0.66678 -9.0174,0.15263 -11.7974,-2.9193 l -3.3744,-3.72864 7.8088,-0.0243 c 16.4024,-0.0509 20.8355,-4.7161 9.5811,-10.08294 l -6.2049,-2.9589 3.989,-4.25553 c 4.0664,-4.33801 18.743,-11.94692 20.2116,-10.47836 0.4451,0.44512 -0.8262,3.49189 -2.825,6.77059 -3.2909,5.39797 -5.1141,17.484 -2.6375,17.484 2.3418,0 16.752,-11.00701 20.2975,-15.50395 3.287,-4.16908 3.7512,-6.63305 3.1777,-16.86685 -0.5638,-10.06027 -1.4166,-12.7295 -5.3113,-16.62422 l -4.6397,-4.63967 -8.7324,9.15542 -8.7324,9.15543 -0.1068,-5.82659 c -0.059,-3.20461 -0.689,-8.0203 -1.4005,-10.70153 -1.2332,-4.64704 -0.9988,-4.87497 5.0129,-4.87497 3.4686,0 6.7995,-0.79772 7.4021,-1.77272 0.6026,-0.97499 0.4502,-1.83199 -0.3385,-1.90445 -6.0312,-0.55397 -11.7541,-2.42599 -20.9042,-6.83798 l -10.6064,-5.1142 -3.0577,6.48514 c -1.6817,3.56682 -2.6386,7.88115 -2.1263,9.58739 1.2518,4.16964 -5.044595,4.16964 -10.174895,0 -7.6729,-6.23619 -14.0242,-13.51865 -13.4114,-15.37763 0.3457,-1.04849 5.6136,-2.14548 11.7066,-2.43775 l 11.078195,-0.53139 -8.131495,-6.20887 c -4.5144,-3.44699 -9.3731,-9.12477 -10.9226,-12.76398 -3.7744,-8.86431 -2.086,-23.08244 3.8593,-32.50042 2.4946,-3.9517 4.1309,-7.58969 3.6361,-8.0844 -0.4947,-0.49473 -4.9914,0.45965 -9.9927,2.12081 -5.0013,1.66115 -9.5512,2.56232 -10.111,2.00256 -1.4376,-1.43764 9.9842,-19.83134 15.7372,-25.34297 5.9912,-5.73995 9.769,-4.48867 11.3141,3.74735 0.6498,3.46373 1.691,6.27621 2.313695,6.25 0.6227,-0.0262 3.9243,-2.39142 7.3367,-5.25598 3.4125,-2.86456 14.5806,-8.55779 24.8181,-12.65163 10.2374,-4.09385 18.9542,-7.7199 19.3706,-8.05791 0.4164,-0.33798 -1.4416,-2.90948 -4.1289,-5.71444 l -4.886,-5.09991 3.848,-3.58491 c 2.1163,-1.97168 7.3395,-5.43719 11.607,-7.70107 10.3262,-5.47803 12.5995,-3.35855 8.704,8.11511 -1.5733,4.63414 -2.4402,8.84601 -1.9265,9.35973 1.1281,1.12812 21.1845,-2.33639 35.0966,-6.06253 5.9032,-1.58109 11.7726,-4.53943 14.1817,-7.14804 l 4.1102,-4.45053 -11.9658,1.24567 c -8.4724,0.88202 -11.9658,0.6586 -11.9658,-0.76523 0,-1.10599 3.1908,-7.30148 7.0908,-13.76773 3.9,-6.46625 7.1009,-13.00376 7.1131,-14.5278 0.012,-1.52406 2.7506,2.01533 6.0853,7.8653 4.9885,8.75101 6.291,10.04479 7.3485,7.29921 0.7069,-1.83538 0.378,-4.78986 -0.7309,-6.56551 -1.2833,-2.0548 -1.385,-3.61854 -0.2798,-4.30158 0.955,-0.59023 1.7364,-3.02039 1.7364,-5.40033 0,-2.47193 1.0363,-4.32717 2.417,-4.32717 3.0302,0 10.7511,-16.98551 14.5577,-32.02637 1.5876,-6.27285 4.2921,-14.99493 6.01,-19.38241 3.1453,-8.033357 6.0011,-17.935706 8.9466,-31.022536 0.8777,-3.89997 1.6307,-15.65118 1.6731,-26.11379 0.076,-18.83993 0.035,-19.03363 -4.3546,-20.13524 -5.3122,-1.33327 -5.6695,-3.486231 -0.9939,-5.988529 2.4181,-1.294147 3.7948,-1.262266 4.6414,0.10748 2.9017,4.695019 28.5743,-2.436925 49.8563,-13.8502315 7.9772,-4.278094 16.6592,-8.16915493 19.2932,-8.64680093 5.6999,-1.03358597 17.3438,-8.84204627 24.591,-16.49077357 2.8636,-3.02234 6.2539,-5.495163 7.534,-5.495163 3.2751,0 2.9199,1.443191 -1.7096,6.945014 -2.9363,3.48956 -4.9011,9.8430203 -7.2061,23.3012175 -1.743,10.1769105 -3.9667,21.7083865 -4.9416,25.6254965 -0.9749,3.91712 -1.9202,16.52221 -2.1007,28.01131 -0.3154,20.07831 -0.1652,21.01257 3.8684,24.06497 3.1078,2.35182 3.8817,4.1678 2.9828,6.999849 -1.4268,4.49556 -3.2489,4.83291 -6.2929,1.16507 -2.9563,-3.562079 -6.2286,-3.271489 -17.3841,1.54378 -7.9581,3.43508 -8.9973,4.4004 -6.7475,6.267607 1.4628,1.21394 12.4132,15.50857 24.3344,31.76586 11.9212,16.25728 23.9319,31.90388 26.6905,34.7702 2.75853,2.86633 5.01555,6.23002 5.01555,7.47487 0,1.24486 3.39033,6.08957 7.53405,10.76605 4.14372,4.67646 15.80464,19.46095 25.91313,32.85443 10.1085,13.39346 19.08288,24.35175 19.94306,24.35175 0.86019,0 1.57672,0.99715 1.59229,2.2159 0.0282,2.20988 5.99279,9.86247 15.54392,19.94306 2.77136,2.92498 7.78027,8.8999 11.13092,13.27759 3.35066,4.37771 6.96811,8.76518 8.03876,9.74994 1.07066,0.98478 21.34951,24.12673 45.0641,51.42656 55.34156,63.7083 130.49689,138.81596 170.14701,170.0391 15.1124,11.90051 30.41215,23.41219 33.99944,25.5815 3.58727,2.16933 6.77816,4.59123 7.09087,5.38202 0.64128,1.62179 34.14406,25.01874 35.82505,25.01874 0.59629,0 1.08416,-1.04411 1.08416,-2.32026 0,-1.27614 1.0239,-3.72052 2.27534,-5.43195 2.14787,-2.93741 2.54796,-2.89724 7.14298,0.7172 2.67721,2.1059 5.96948,3.40608 7.31614,2.88932 3.07657,-1.18058 20.93096,15.66452 23.74153,22.39944 1.13807,2.72711 2.06921,8.00296 2.06921,11.72411 0,7.82498 5.72729,14.75115 14.78052,17.87448 6.4669,2.23107 18.34183,16.66717 21.66438,26.33693 2.3101,6.72322 6.11557,9.57017 20.26238,15.15867 7.28051,2.87608 17.74681,12.05364 17.74681,15.56162 0,1.81657 8.5538,1.6814 13.29537,-0.2101 3.00876,-1.20026 2.4018,-1.76152 -4.00967,-3.70775 -10.41849,-3.16259 -12.24231,-5.73339 -9.48237,-13.36589 1.21215,-3.35212 1.71982,-7.61993 1.12818,-9.48405 -0.59165,-1.86412 -0.20683,-3.92632 0.85517,-4.58267 1.38283,-0.85462 1.35998,-1.88131 -0.0805,-3.61696 -2.30102,-2.77256 -0.85587,-6.12435 2.64057,-6.12435 3.26618,0 4.993,-5.26746 2.65168,-8.0886 -2.59419,-3.12581 1.03254,-9.92829 5.07926,-9.5269 5.90816,0.58603 7.37092,-0.18858 10.01629,-5.30418 1.47683,-2.85588 4.48878,-5.69806 6.69321,-6.31592 7.7319,-2.16715 11.98528,-5.07382 11.98528,-8.19048 0,-7.21753 12.57675,-10.90193 21.0968,-6.18037 3.8976,2.15995 3.99265,2.50592 1.12874,4.10863 -2.54869,1.42633 -1.73184,1.93726 4.41536,2.76177 4.24488,0.56936 10.72685,3.31517 14.82571,6.28029 7.64264,5.52873 10.43669,10.95588 5.64036,10.95588 -1.53399,0 -2.78907,0.84481 -2.78907,1.87734 0,1.03254 0.70396,1.44227 1.56435,0.91051 1.51927,-0.93896 10.4073,4.97601 13.03342,8.6737 0.71632,1.00861 1.31461,4.08131 1.32954,6.82826 0.0214,3.95605 -0.61785,4.78944 -3.07512,4.00848 -2.70672,-0.86022 -3.02874,0.0851 -2.52562,7.4146 0.93346,13.59892 -4.81977,23.76139 -8.23117,14.53951 -1.1676,-3.15631 -1.6335,-2.76571 -3.70038,3.10225 -3.0494,8.65731 -8.61624,14.69043 -13.55506,14.69043 -2.14815,0 -4.83115,1.11507 -5.96222,2.47792 -1.62641,1.9597 -1.11227,3.22067 2.4583,6.02928 7.88871,6.20527 17.22368,21.77633 21.60183,36.03264 2.33156,7.59212 5.06949,14.31699 6.0843,14.94418 1.19405,0.73796 0.88536,2.20081 -0.87482,4.14578 -2.47941,2.73971 -2.03354,3.84219 5.04251,12.46838 l 7.76239,9.46291 1.28426,20.55385 c 1.14957,18.3984 0.87577,21.85935 -2.61098,33.00309 -6.43734,20.5739 -6.41709,20.33715 -1.63932,19.18183 2.29501,-0.55496 6.3429,-3.02179 8.99533,-5.48182 4.18728,-3.88358 4.96993,-4.08888 5.94099,-1.55843 0.6882,1.79344 -0.65534,5.02221 -3.4931,8.39472 -4.41222,5.24362 -5.35894,9.23268 -4.67832,19.7123 0.18014,2.77375 -1.21846,6.28127 -3.3576,8.42041 -2.01648,2.01648 -3.66635,5.25504 -3.66635,7.19676 0,1.94173 -1.59544,4.52678 -3.54543,5.74456 -1.94999,1.21779 -3.54543,3.1651 -3.54543,4.32736 0,3.50417 -7.1877,4.78774 -10.16091,1.81452 -2.13739,-2.13738 -3.78924,-2.2937 -8.22273,-0.77819 -7.00065,2.39308 -8.52299,4.54142 -7.43828,10.49695 0.74776,4.10558 0.15351,4.90564 -4.3837,5.90217 -5.1554,1.13232 -5.24871,1.35627 -5.24871,12.59699 0,7.441 0.97901,12.93834 2.79878,15.71565 1.53932,2.34932 2.55211,6.15382 2.25062,8.45432 -0.33722,2.5735 1.65522,7.179 5.17846,11.9699 3.14962,4.2828 5.72658,8.7352 5.72658,9.8941 0,1.159 1.19168,4.3922 2.64816,7.1848 1.79486,3.4415 2.65166,10.4148 2.65907,21.6412 0.0106,15.098 0.32636,16.6461 3.57575,17.4959 3.54036,0.92583 6.29596,7.26683 4.93381,11.35333 -0.39112,1.1734 2.72188,5.2978 6.91778,9.1654 6.09202,5.6155 7.6289,8.2366 7.6289,13.0109 l 0,5.9787 -26.40109,0 c -21.83231,0 -26.57766,-0.4602 -27.42147,-2.6591 z m 15.75606,-166.63978 c 0.0365,-6.19546 0.92463,-8.58507 3.98861,-10.73117 2.93578,-2.0563 3.94171,-4.5372 3.94171,-9.72137 0,-6.54873 -0.51157,-7.2197 -8.64768,-11.34258 -4.75622,-2.41017 -9.14369,-3.8861 -9.74995,-3.27985 -1.67188,1.67189 -1.31819,19.66854 0.40752,20.7351 1.25836,0.7777 5.62468,11.31292 8.33277,20.10556 1.21182,3.93456 1.67912,2.37449 1.72702,-5.76569 z M 774.62457,836.70283 c 12.23128,-0.0697 26.8594,-1.25279 33.10451,-2.6776 6.15421,-1.40406 13.83897,-2.55285 17.07723,-2.55285 4.39689,0 6.12252,-0.89776 6.81491,-3.54543 0.50994,-1.94999 0.20411,-3.54544 -0.67961,-3.54544 -0.88372,0 -1.60675,-1.9943 -1.60675,-4.43179 0,-3.22643 0.94916,-4.43179 3.4898,-4.43179 2.37372,0 3.16347,-0.85039 2.46941,-2.65908 -0.56122,-1.46249 -3.19032,-2.65907 -5.84246,-2.65907 -4.52483,0 -4.95023,-0.69558 -6.90121,-11.28387 -1.14352,-6.20612 -2.07913,-15.48062 -2.07913,-20.60998 0,-9.88825 6.39978,-40.51873 9.05899,-43.35797 0.86753,-0.92624 1.57731,-3.12817 1.57731,-4.89316 0,-1.76498 2.82837,-7.23302 6.28529,-12.1512 l 6.28527,-8.94214 -8.52151,-8.34407 c -5.11782,-5.01122 -8.28448,-9.57502 -7.92804,-11.42592 0.32645,-1.69502 -0.11575,-3.08185 -0.98274,-3.08185 -2.01192,0 -8.50868,-11.79108 -10.01168,-18.17034 -0.63172,-2.68124 -1.90024,-4.87497 -2.81894,-4.87497 -3.15593,0 -23.24013,-36.2871 -25.82713,-46.66309 -1.00525,-4.03189 -6.35896,-8.29112 -10.42169,-8.29112 -0.29087,0 -2.59193,4.5869 -5.11344,10.19312 -2.52151,5.60621 -5.79597,11.78856 -7.27657,13.73855 -1.48059,1.94999 -2.71737,4.61887 -2.74839,5.93085 -0.031,1.31199 -1.85125,4.90174 -4.04498,7.97723 -5.5586,7.79284 -10.90465,19.74861 -18.22807,40.76487 -15.49666,44.47127 -19.83148,74.78354 -16.36259,114.41912 0.98158,11.21557 1.97993,14.1388 6.96236,20.38624 8.47748,10.62988 18.00677,17.79262 21.22454,15.95351 0.62165,-0.3553 10.99204,-0.70215 23.04531,-0.77076 z m 180.46596,-14.64819 c -1.19916,-5.05768 -3.02032,-9.73946 -4.04706,-10.40396 -3.04602,-1.97141 -3.68413,-23.50862 -0.86617,-29.23488 3.38798,-6.88458 2.25995,-10.44148 -4.66956,-14.72417 -3.25196,-2.00981 -6.39882,-4.92109 -6.99298,-6.46947 -0.98609,-2.56968 -1.45726,-2.56828 -5.40161,0.0159 -5.0964,3.33929 -5.54181,2.82995 -7.19719,-8.23046 -1.51913,-10.15009 -3.35008,-11.8056 -5.83272,-5.27381 -4.86954,12.81165 -4.10249,25.77252 2.79886,47.29275 1.80879,5.64028 2.15737,8.97583 0.97907,9.36859 -1.00637,0.33547 -1.47187,2.48212 -1.03445,4.77034 0.56532,2.95725 1.71249,3.92058 3.96679,3.33106 3.51744,-0.91982 8.90433,5.38612 8.90433,10.42349 0,1.9182 2.90398,4.3526 7.74846,6.49555 4.26164,1.88512 8.36066,4.41807 9.10889,5.62875 1.02059,1.65134 1.77954,1.45237 3.03805,-0.79645 1.09068,-1.94896 0.91481,-6.21484 -0.50271,-12.19349 z"
       id="path3790" />
  </g>
</svg>
