<svg xmlns="http://www.w3.org/2000/svg" xmlns:svg="http://www.w3.org/2000/svg" id="svg4665" width="800" height="600" version="1.1"><metadata id="metadata4670"/><g id="layer1"><path style="fill:#784421;stroke:none;stroke-width:1px;stroke-linecap:butt;stroke-linejoin:miter;stroke-opacity:1" id="path4677" d="m 398.33334,48.333333 c -31.33973,19.161338 -28.47406,66.827167 -35,106.666657 l 53.33333,8.33334 C 399.52264,103.09428 406.95594,82.206377 438.33334,61.666666 l -40,-13.333333 z"/><g id="g5281"><path id="path5279" d="m 400.5,55.5 c -20.4423,-0.680263 -34.51732,73.25403 -30,91.5 l 37,3 c -4.63176,-58.973071 -37.77243,-25.07123 -7,-94.5 z" style="fill:#a05a2c;stroke:none;stroke-width:1px;stroke-linecap:butt;stroke-linejoin:miter;stroke-opacity:1"/></g><path style="fill:#f60;stroke:none;stroke-width:1px;stroke-linecap:butt;stroke-linejoin:miter;stroke-opacity:1" id="path4675" d="M 383.43069,136.68753 C 726.50681,54.867451 712.82092,570.56997 381.53208,471.6863 8.7650965,548.04467 72.961023,23.055629 383.43069,136.68753 z"/><path style="fill:#d45500;stroke:none" id="path5189" d="M 251.71054,144.95612 C 152.36762,198.81931 134.29504,359.36678 199.85477,433.37721 103.79618,368.01284 121.10668,167.8176 251.71054,144.95612 z"/><path style="fill:#d45500;stroke:none" id="path5189-0" d="M 320.20231,142.47699 C 192.24874,244.19792 232.36463,365.17936 265.88287,460.49252 187.23189,375.6223 141.40058,218.49971 320.20231,142.47699 z"/><path style="fill:#d45500;stroke:none" id="path5189-0-4" d="m 396.7746,143.49223 c 103.08397,107.67499 125.48891,235.59343 64.07343,319.6822 97.49588,-27.29592 91.24294,-218.24034 -64.07343,-319.6822 z"/><path style="fill:#d45500;stroke:none" id="path5189-0-4-3" d="m 467.60794,138.49223 c 139.89183,107.31869 123.52958,233.70563 66.08476,314.6822 95.68643,-81.00877 127.75025,-215.53077 -66.08476,-314.6822 z"/><path style="fill:#d45500;stroke:none" id="path5189-2" d="M 354.153,159.95612 C 329.81008,277.15265 331.7375,386.03345 340.63056,461.71055 309.57197,386.34618 295.2158,312.81761 354.153,159.95612 z"/></g></svg>